<svg width="234" height="56" viewBox="0 0 234 56" fill="none" xmlns="http://www.w3.org/2000/svg">
<path d="M17.34 23.73C20.6533 23.9167 23.3833 25.06 25.53 27.16C27.6767 29.26 28.75 32.2467 28.75 36.12C28.75 40.32 27.35 43.5167 24.55 45.71C21.7967 47.9033 17.9233 49 12.93 49H0.61V1.33H10.48C15.5667 1.33 19.4633 2.33333 22.17 4.34C24.9233 6.3 26.3 9.21667 26.3 13.09C26.3 16.1233 25.4833 18.55 23.85 20.37C22.2633 22.1433 20.0933 23.2633 17.34 23.73ZM2.22 2.8V23.1H14.12C17.2933 23.1 19.8367 22.19 21.75 20.37C23.71 18.55 24.69 16.1467 24.69 13.16C24.69 9.70666 23.5 7.11666 21.12 5.39C18.74 3.66333 15.2633 2.8 10.69 2.8H2.22ZM13 47.53C17.4333 47.53 20.8867 46.5967 23.36 44.73C25.88 42.8167 27.14 39.9467 27.14 36.12C27.14 32.3867 25.9733 29.5167 23.64 27.51C21.3533 25.5033 18.2967 24.5 14.47 24.5H2.22V47.53H13ZM54.714 1.33L54.504 2.8H33.854V23.1H51.634V24.57H33.854V47.53H55.204V49H32.244V1.33H54.714ZM58.9938 1.33V49H57.3838V1.33H58.9938ZM69.3243 42.91C69.3243 45.3367 69.0676 47.2967 68.5543 48.79C68.0876 50.2833 67.201 51.5667 65.8943 52.64C64.6343 53.76 62.721 54.88 60.1543 56L59.6643 54.81C61.8576 53.7833 63.5143 52.7567 64.6343 51.73C65.801 50.75 66.5943 49.5833 67.0143 48.23C67.481 46.83 67.7143 45.01 67.7143 42.77V1.33H69.3243V42.91ZM103.368 49L98.4684 34.79H76.4884L71.5884 49H69.9784L86.5684 1.33H88.4584L105.118 49H103.368ZM76.9784 33.32H97.9784L87.4784 2.59L76.9784 33.32ZM102.31 27.86V26.39H119.32V27.86H102.31ZM123.969 49V1.33H146.089L145.879 2.8H125.579V24.08H143.079V25.55H125.579V49H123.969ZM149.078 1.33V47.46H169.238L168.958 49H147.468V1.33H149.078ZM181.925 0.629997C185.705 0.629997 188.995 1.58666 191.795 3.5C194.595 5.36667 196.765 8.14333 198.305 11.83C199.845 15.47 200.615 19.9267 200.615 25.2C200.615 32.9 198.959 38.92 195.645 43.26C192.379 47.5533 187.805 49.7 181.925 49.7C178.192 49.7 174.925 48.7433 172.125 46.83C169.325 44.9167 167.155 42.14 165.615 38.5C164.075 34.8133 163.305 30.4033 163.305 25.27C163.305 20.1367 164.075 15.7267 165.615 12.04C167.202 8.30666 169.395 5.48333 172.195 3.57C174.995 1.61 178.239 0.629997 181.925 0.629997ZM181.925 2.1C178.519 2.1 175.532 3.01 172.965 4.83C170.445 6.60333 168.462 9.24 167.015 12.74C165.615 16.1933 164.915 20.37 164.915 25.27C164.915 30.1233 165.615 34.2767 167.015 37.73C168.415 41.1367 170.399 43.7267 172.965 45.5C175.532 47.2733 178.519 48.16 181.925 48.16C187.339 48.16 191.539 46.2 194.525 42.28C197.512 38.3133 199.005 32.62 199.005 25.2C199.005 17.7333 197.465 12.0167 194.385 8.05C191.352 4.08333 187.199 2.1 181.925 2.1ZM218.567 26.32H206.877V49H205.267V1.33H215.697C221.11 1.33 225.077 2.38 227.597 4.48C230.117 6.58 231.377 9.66 231.377 13.72C231.377 17.4067 230.374 20.2533 228.367 22.26C226.407 24.22 223.7 25.5033 220.247 26.11L233.617 49H231.727L218.567 26.32ZM216.747 24.85C220.807 24.85 223.98 23.94 226.267 22.12C228.6 20.2533 229.767 17.4533 229.767 13.72C229.767 10.1267 228.647 7.42 226.407 5.6C224.214 3.73333 220.574 2.8 215.487 2.8H206.877V24.85H216.747Z" fill="#3F5A3F"/>
</svg>
