<svg width="106" height="142" viewBox="0 0 106 142" fill="none" xmlns="http://www.w3.org/2000/svg">
<path d="M36.2281 100.828C37.9972 97.5139 39.5045 94.841 40.4678 93.461C42.9784 89.845 45.2133 86.5832 46.9744 83.691C53.3095 85.8821 60.3387 82.8415 62.9472 76.5799C63.2675 75.8109 63.5412 74.9668 63.7523 74.0571C63.9364 74.6809 64.1062 75.3264 64.3318 75.8697C67.0275 82.3945 74.5097 85.5114 81.0359 82.8282C87.3607 80.2289 90.4245 73.166 88.2006 66.7901C94.655 69.3071 101.976 66.2333 104.652 59.8095C107.366 53.2923 104.266 45.7888 97.7576 43.0776C97.2261 42.8562 96.6585 42.6898 96.0852 42.5118C96.4939 42.3808 96.9554 42.2691 97.3236 42.1146C103.871 39.4337 106.988 31.9527 104.286 25.4004C101.598 18.8718 94.1108 15.753 87.5823 18.4419C87.0824 18.6459 86.5579 18.9692 86.037 19.2649C86.1971 18.947 86.3655 18.6062 86.4973 18.2898C89.2139 11.7654 86.1287 4.27887 79.6047 1.56113C73.2947 -1.06749 66.1407 1.76512 63.2055 7.82458C60.3587 1.6055 53.1152 -1.33268 46.724 1.30236C40.1974 3.99596 37.0805 11.4782 39.7632 18.0121C40.0713 18.7377 40.4869 19.4975 40.9201 20.2435C40.4465 19.9815 39.9618 19.7334 39.4799 19.5326C32.9548 16.8144 25.4694 19.9001 22.7484 26.432C20.0475 32.9154 23.088 40.3635 29.5429 43.1106C23.1425 45.8726 20.0969 53.2471 22.7667 59.7228C25.4351 66.2084 32.8244 69.3104 39.328 66.7196C39.3233 66.7309 39.32 66.7387 39.32 66.7387C37.0483 72.1919 38.8838 78.3108 43.3513 81.7588C41.6801 84.4956 39.5242 87.6344 37.0963 91.1408C34.0039 95.6046 30.5834 100.551 27.5962 105.619C27.6063 105.528 27.6368 105.455 27.649 105.347C29.6685 88.1628 12.9429 74.4932 0.420117 79.6508C2.72678 94.8206 7.16948 106.588 23.4412 113.367C22.6723 115.013 13.5364 136.991 12.637 139.448L16.4294 141.028C19.2549 134.924 25.1591 122.575 30.5352 111.836C30.5704 111.751 30.6037 111.671 30.6394 111.586C30.7058 111.55 30.7612 111.528 30.831 111.494C40.8567 106.713 52.5429 102.767 63.4885 104.26C55.9643 103.956 46.2673 105.588 32.0912 113.836C31.1966 114.359 30.4032 114.833 29.7043 115.252C52.1858 124.617 68.9634 118.235 86.6181 104.986C79.992 88.8933 52.3154 83.9259 36.2281 100.828ZM23.608 113.027C21.8281 105.027 18.4522 96.4585 12.3669 90.924C16.3455 93.9662 20.7993 99.0682 24.8622 110.514C24.4346 111.353 24.0039 112.187 23.608 113.027ZM53.1808 38.3601C55.5476 32.6784 62.092 29.9737 67.7817 32.3439C73.4612 34.7098 76.1567 41.2636 73.7898 46.9453C71.4243 52.6237 64.8717 55.329 59.1922 52.963C53.5015 50.5924 50.8153 44.0385 53.1808 38.3601Z" fill="#A7DDA7"/>
</svg>
