<svg width="440" height="32" viewBox="0 0 440 32" fill="none" xmlns="http://www.w3.org/2000/svg">
<path d="M12 31.8C11.5333 31.8 11.0667 31.7333 10.6 31.6C10.1333 31.5333 9.66667 31.4667 9.2 31.4C8 31.0667 7.16667 30.3667 6.7 29.3C6.1 27.9667 6.1 26.3667 6.7 24.5C7.36667 22.5667 8.43333 20.1 9.9 17.1C10.1667 16.5667 10.4333 15.9667 10.7 15.3C11.0333 14.6333 11.3333 14 11.6 13.4C10.7333 13.7333 9.8 14.3 8.8 15.1C7.86667 15.8333 6.9 16.6 5.9 17.4C5.23333 17.8667 4.5 18.0667 3.7 18C2.83333 17.8667 2.13333 17.5 1.6 16.9C1.13333 16.2333 0.966667 15.5 1.1 14.7C1.16667 13.9 1.5 13.2 2.1 12.6C3.03333 11.9333 4 11.2 5 10.4C6.06667 9.6 7.13333 8.93333 8.2 8.4C10.9333 7 13.4333 6.63333 15.7 7.3C16.7667 7.5 17.5667 8.16667 18.1 9.3C18.6333 10.3667 18.6 11.7 18 13.3C17.4667 14.9 16.5333 17.0667 15.2 19.8C14.8667 20.6 14.5 21.4 14.1 22.2C13.7667 23 13.4333 23.7667 13.1 24.5C13.0333 24.7667 12.9333 25 12.8 25.2C12.7333 25.4 12.6667 25.6 12.6 25.8C14 25.6 16.0333 24.9 18.7 23.7C21.4333 22.4333 25.1 19.9667 29.7 16.3C32.1667 14.3667 34.4 12.5 36.4 10.7C38.4 8.83333 40 7.3 41.2 6.1C42.4 4.9 43 4.3 43 4.3C43.8 3.36667 44.7667 3.06667 45.9 3.4C46.4333 3.46666 46.8667 3.7 47.2 4.1C47.5333 4.43333 47.8 4.76667 48 5.1C48.4667 6.03333 48.5 7.13333 48.1 8.4C47.7667 9.6 47.0333 11.5667 45.9 14.3C45.5 15.1667 45.1 16.0333 44.7 16.9C44.3667 17.7667 44.0333 18.5667 43.7 19.3C43.6333 19.5667 43.5667 19.8 43.5 20C43.5 20.1333 43.4667 20.2667 43.4 20.4C44.6667 20.2 46 19.6667 47.4 18.8C48.8667 17.8667 50.2667 16.8333 51.6 15.7C53 14.5667 54.1667 13.6 55.1 12.8C55.7667 12.2 56.5 11.9333 57.3 12C58.1 12.0667 58.8 12.4 59.4 13C59.9333 13.6667 60.1667 14.4 60.1 15.2C60.1 16 59.7667 16.7 59.1 17.3C57.0333 19.1 54.9 20.8 52.7 22.4C50.5667 24 48.4 25.2 46.2 26C44.0667 26.7333 41.9 26.8333 39.7 26.3C38.6333 25.8333 37.8667 25.1667 37.4 24.3C37 23.3667 36.8667 22.3333 37 21.2C37.2 20.0667 37.6 18.6667 38.2 17C37.4667 17.6667 36.7 18.3 35.9 18.9C35.1667 19.5 34.3667 20.1667 33.5 20.9C24.3 28.1667 17.1333 31.8 12 31.8ZM65.2227 31.8C64.756 31.8 64.2893 31.7333 63.8227 31.6C63.356 31.5333 62.8893 31.4667 62.4227 31.4C61.2227 31.0667 60.3893 30.3667 59.9227 29.3C59.3227 27.9667 59.3227 26.3667 59.9227 24.5C60.5893 22.5667 61.656 20.1 63.1227 17.1C63.3893 16.5667 63.656 15.9667 63.9227 15.3C64.256 14.6333 64.556 14 64.8227 13.4C63.956 13.7333 63.0227 14.3 62.0227 15.1C61.0893 15.8333 60.1227 16.6 59.1227 17.4C58.456 17.8667 57.7227 18.0667 56.9227 18C56.056 17.8667 55.356 17.5 54.8227 16.9C54.356 16.2333 54.1893 15.5 54.3227 14.7C54.3893 13.9 54.7227 13.2 55.3227 12.6C56.256 11.9333 57.2227 11.2 58.2227 10.4C59.2893 9.6 60.356 8.93333 61.4227 8.4C64.156 7 66.656 6.63333 68.9227 7.3C69.9893 7.5 70.7893 8.16667 71.3227 9.3C71.856 10.3667 71.8227 11.7 71.2227 13.3C70.6893 14.9 69.756 17.0667 68.4227 19.8C68.0893 20.6 67.7227 21.4 67.3227 22.2C66.9893 23 66.656 23.7667 66.3227 24.5C66.256 24.7667 66.156 25 66.0227 25.2C65.956 25.4 65.8893 25.6 65.8227 25.8C67.2227 25.6 69.256 24.9 71.9227 23.7C74.656 22.4333 78.3227 19.9667 82.9227 16.3C85.3893 14.3667 87.6227 12.5 89.6227 10.7C91.6227 8.83333 93.2227 7.3 94.4227 6.1C95.6227 4.9 96.2227 4.3 96.2227 4.3C97.0227 3.36667 97.9893 3.06667 99.1227 3.4C99.656 3.46666 100.089 3.7 100.423 4.1C100.756 4.43333 101.023 4.76667 101.223 5.1C101.689 6.03333 101.723 7.13333 101.323 8.4C100.989 9.6 100.256 11.5667 99.1227 14.3C98.7227 15.1667 98.3227 16.0333 97.9227 16.9C97.5893 17.7667 97.256 18.5667 96.9227 19.3C96.856 19.5667 96.7893 19.8 96.7227 20C96.7227 20.1333 96.6893 20.2667 96.6227 20.4C97.8893 20.2 99.2227 19.6667 100.623 18.8C102.089 17.8667 103.489 16.8333 104.823 15.7C106.223 14.5667 107.389 13.6 108.323 12.8C108.989 12.2 109.723 11.9333 110.523 12C111.323 12.0667 112.023 12.4 112.623 13C113.156 13.6667 113.389 14.4 113.323 15.2C113.323 16 112.989 16.7 112.323 17.3C110.256 19.1 108.123 20.8 105.923 22.4C103.789 24 101.623 25.2 99.4227 26C97.2893 26.7333 95.1227 26.8333 92.9227 26.3C91.856 25.8333 91.0893 25.1667 90.6227 24.3C90.2227 23.3667 90.0893 22.3333 90.2227 21.2C90.4227 20.0667 90.8227 18.6667 91.4227 17C90.6893 17.6667 89.9227 18.3 89.1227 18.9C88.3893 19.5 87.5893 20.1667 86.7227 20.9C77.5227 28.1667 70.356 31.8 65.2227 31.8ZM123.745 23.1C123.412 23.1 123.145 23.0667 122.945 23C121.879 22.7333 121.112 22.3333 120.645 21.8C120.245 21.2 119.979 20.7333 119.845 20.4C119.379 18.9333 119.545 17.4333 120.345 15.9C121.145 14.3 122.179 12.6333 123.445 10.9C123.845 10.3667 124.212 9.8 124.545 9.2C124.945 8.53333 125.279 7.96667 125.545 7.5C125.612 7.43333 125.712 7.3 125.845 7.1C125.445 7.23333 124.945 7.43333 124.345 7.7C123.812 7.96667 123.179 8.36667 122.445 8.9C121.245 9.63333 119.979 10.6 118.645 11.8C117.312 12.9333 115.945 14.1333 114.545 15.4C114.212 15.6667 113.845 15.9667 113.445 16.3C113.112 16.6333 112.779 16.9667 112.445 17.3C111.845 17.8333 111.145 18.1 110.345 18.1C109.479 18.0333 108.779 17.6667 108.245 17C107.645 16.4 107.379 15.7 107.445 14.9C107.512 14.0333 107.845 13.3333 108.445 12.8C108.779 12.4667 109.145 12.1333 109.545 11.8C109.879 11.4667 110.212 11.1667 110.545 10.9C112.679 8.96667 114.779 7.2 116.845 5.6C118.912 3.93333 120.945 2.66667 122.945 1.8C124.945 0.933331 126.879 0.766665 128.745 1.3C129.879 1.56667 130.679 2.03333 131.145 2.7C131.679 3.3 131.979 3.83333 132.045 4.3C132.645 5.76667 132.512 7.33333 131.645 9C130.779 10.6 129.679 12.3667 128.345 14.3C128.212 14.4333 128.045 14.6667 127.845 15C127.712 15.2667 127.545 15.5333 127.345 15.8C128.345 15.4 129.645 14.9 131.245 14.3C132.845 13.7 134.779 12.9667 137.045 12.1C137.912 11.8333 138.712 11.9 139.445 12.3C140.179 12.6333 140.679 13.2 140.945 14C141.279 14.7333 141.245 15.5 140.845 16.3C140.512 17.0333 139.979 17.5667 139.245 17.9C137.112 18.6333 135.179 19.3 133.445 19.9C131.712 20.5 130.245 21.0333 129.045 21.5C128.379 21.7667 127.779 22 127.245 22.2C126.779 22.3333 126.345 22.4667 125.945 22.6C125.479 22.7333 125.079 22.8667 124.745 23C124.412 23.0667 124.079 23.1 123.745 23.1ZM151.284 23.1C150.951 23.1 150.684 23.0667 150.484 23C149.418 22.7333 148.651 22.3333 148.184 21.8C147.784 21.2 147.518 20.7333 147.384 20.4C146.918 18.9333 147.084 17.4333 147.884 15.9C148.684 14.3 149.718 12.6333 150.984 10.9C151.384 10.3667 151.751 9.8 152.084 9.2C152.484 8.53333 152.818 7.96667 153.084 7.5C153.151 7.43333 153.251 7.3 153.384 7.1C152.984 7.23333 152.484 7.43333 151.884 7.7C151.351 7.96667 150.718 8.36667 149.984 8.9C148.784 9.63333 147.518 10.6 146.184 11.8C144.851 12.9333 143.484 14.1333 142.084 15.4C141.751 15.6667 141.384 15.9667 140.984 16.3C140.651 16.6333 140.318 16.9667 139.984 17.3C139.384 17.8333 138.684 18.1 137.884 18.1C137.018 18.0333 136.318 17.6667 135.784 17C135.184 16.4 134.918 15.7 134.984 14.9C135.051 14.0333 135.384 13.3333 135.984 12.8C136.318 12.4667 136.684 12.1333 137.084 11.8C137.418 11.4667 137.751 11.1667 138.084 10.9C140.218 8.96667 142.318 7.2 144.384 5.6C146.451 3.93333 148.484 2.66667 150.484 1.8C152.484 0.933331 154.418 0.766665 156.284 1.3C157.418 1.56667 158.218 2.03333 158.684 2.7C159.218 3.3 159.518 3.83333 159.584 4.3C160.184 5.76667 160.051 7.33333 159.184 9C158.318 10.6 157.218 12.3667 155.884 14.3C155.751 14.4333 155.584 14.6667 155.384 15C155.251 15.2667 155.084 15.5333 154.884 15.8C155.884 15.4 157.184 14.9 158.784 14.3C160.384 13.7 162.318 12.9667 164.584 12.1C165.451 11.8333 166.251 11.9 166.984 12.3C167.718 12.6333 168.218 13.2 168.484 14C168.818 14.7333 168.784 15.5 168.384 16.3C168.051 17.0333 167.518 17.5667 166.784 17.9C164.651 18.6333 162.718 19.3 160.984 19.9C159.251 20.5 157.784 21.0333 156.584 21.5C155.918 21.7667 155.318 22 154.784 22.2C154.318 22.3333 153.884 22.4667 153.484 22.6C153.018 22.7333 152.618 22.8667 152.284 23C151.951 23.0667 151.618 23.1 151.284 23.1ZM173.523 31.8C173.057 31.8 172.59 31.7333 172.123 31.6C171.657 31.5333 171.19 31.4667 170.723 31.4C169.523 31.0667 168.69 30.3667 168.223 29.3C167.623 27.9667 167.623 26.3667 168.223 24.5C168.89 22.5667 169.957 20.1 171.423 17.1C171.69 16.5667 171.957 15.9667 172.223 15.3C172.557 14.6333 172.857 14 173.123 13.4C172.257 13.7333 171.323 14.3 170.323 15.1C169.39 15.8333 168.423 16.6 167.423 17.4C166.757 17.8667 166.023 18.0667 165.223 18C164.357 17.8667 163.657 17.5 163.123 16.9C162.657 16.2333 162.49 15.5 162.623 14.7C162.69 13.9 163.023 13.2 163.623 12.6C164.557 11.9333 165.523 11.2 166.523 10.4C167.59 9.6 168.657 8.93333 169.723 8.4C172.457 7 174.957 6.63333 177.223 7.3C178.29 7.5 179.09 8.16667 179.623 9.3C180.157 10.3667 180.123 11.7 179.523 13.3C178.99 14.9 178.057 17.0667 176.723 19.8C176.39 20.6 176.023 21.4 175.623 22.2C175.29 23 174.957 23.7667 174.623 24.5C174.557 24.7667 174.457 25 174.323 25.2C174.257 25.4 174.19 25.6 174.123 25.8C175.523 25.6 177.557 24.9 180.223 23.7C182.957 22.4333 186.623 19.9667 191.223 16.3C193.69 14.3667 195.923 12.5 197.923 10.7C199.923 8.83333 201.523 7.3 202.723 6.1C203.923 4.9 204.523 4.3 204.523 4.3C205.323 3.36667 206.29 3.06667 207.423 3.4C207.957 3.46666 208.39 3.7 208.723 4.1C209.057 4.43333 209.323 4.76667 209.523 5.1C209.99 6.03333 210.023 7.13333 209.623 8.4C209.29 9.6 208.557 11.5667 207.423 14.3C207.023 15.1667 206.623 16.0333 206.223 16.9C205.89 17.7667 205.557 18.5667 205.223 19.3C205.157 19.5667 205.09 19.8 205.023 20C205.023 20.1333 204.99 20.2667 204.923 20.4C206.19 20.2 207.523 19.6667 208.923 18.8C210.39 17.8667 211.79 16.8333 213.123 15.7C214.523 14.5667 215.69 13.6 216.623 12.8C217.29 12.2 218.023 11.9333 218.823 12C219.623 12.0667 220.323 12.4 220.923 13C221.457 13.6667 221.69 14.4 221.623 15.2C221.623 16 221.29 16.7 220.623 17.3C218.557 19.1 216.423 20.8 214.223 22.4C212.09 24 209.923 25.2 207.723 26C205.59 26.7333 203.423 26.8333 201.223 26.3C200.157 25.8333 199.39 25.1667 198.923 24.3C198.523 23.3667 198.39 22.3333 198.523 21.2C198.723 20.0667 199.123 18.6667 199.723 17C198.99 17.6667 198.223 18.3 197.423 18.9C196.69 19.5 195.89 20.1667 195.023 20.9C185.823 28.1667 178.657 31.8 173.523 31.8ZM226.746 31.8C226.279 31.8 225.813 31.7333 225.346 31.6C224.879 31.5333 224.413 31.4667 223.946 31.4C222.746 31.0667 221.913 30.3667 221.446 29.3C220.846 27.9667 220.846 26.3667 221.446 24.5C222.113 22.5667 223.179 20.1 224.646 17.1C224.913 16.5667 225.179 15.9667 225.446 15.3C225.779 14.6333 226.079 14 226.346 13.4C225.479 13.7333 224.546 14.3 223.546 15.1C222.613 15.8333 221.646 16.6 220.646 17.4C219.979 17.8667 219.246 18.0667 218.446 18C217.579 17.8667 216.879 17.5 216.346 16.9C215.879 16.2333 215.713 15.5 215.846 14.7C215.913 13.9 216.246 13.2 216.846 12.6C217.779 11.9333 218.746 11.2 219.746 10.4C220.813 9.6 221.879 8.93333 222.946 8.4C225.679 7 228.179 6.63333 230.446 7.3C231.513 7.5 232.313 8.16667 232.846 9.3C233.379 10.3667 233.346 11.7 232.746 13.3C232.213 14.9 231.279 17.0667 229.946 19.8C229.613 20.6 229.246 21.4 228.846 22.2C228.513 23 228.179 23.7667 227.846 24.5C227.779 24.7667 227.679 25 227.546 25.2C227.479 25.4 227.413 25.6 227.346 25.8C228.746 25.6 230.779 24.9 233.446 23.7C236.179 22.4333 239.846 19.9667 244.446 16.3C246.913 14.3667 249.146 12.5 251.146 10.7C253.146 8.83333 254.746 7.3 255.946 6.1C257.146 4.9 257.746 4.3 257.746 4.3C258.546 3.36667 259.513 3.06667 260.646 3.4C261.179 3.46666 261.613 3.7 261.946 4.1C262.279 4.43333 262.546 4.76667 262.746 5.1C263.213 6.03333 263.246 7.13333 262.846 8.4C262.513 9.6 261.779 11.5667 260.646 14.3C260.246 15.1667 259.846 16.0333 259.446 16.9C259.113 17.7667 258.779 18.5667 258.446 19.3C258.379 19.5667 258.313 19.8 258.246 20C258.246 20.1333 258.213 20.2667 258.146 20.4C259.413 20.2 260.746 19.6667 262.146 18.8C263.613 17.8667 265.013 16.8333 266.346 15.7C267.746 14.5667 268.913 13.6 269.846 12.8C270.513 12.2 271.246 11.9333 272.046 12C272.846 12.0667 273.546 12.4 274.146 13C274.679 13.6667 274.913 14.4 274.846 15.2C274.846 16 274.513 16.7 273.846 17.3C271.779 19.1 269.646 20.8 267.446 22.4C265.313 24 263.146 25.2 260.946 26C258.813 26.7333 256.646 26.8333 254.446 26.3C253.379 25.8333 252.613 25.1667 252.146 24.3C251.746 23.3667 251.613 22.3333 251.746 21.2C251.946 20.0667 252.346 18.6667 252.946 17C252.213 17.6667 251.446 18.3 250.646 18.9C249.913 19.5 249.113 20.1667 248.246 20.9C239.046 28.1667 231.879 31.8 226.746 31.8ZM285.269 23.1C284.935 23.1 284.669 23.0667 284.469 23C283.402 22.7333 282.635 22.3333 282.169 21.8C281.769 21.2 281.502 20.7333 281.369 20.4C280.902 18.9333 281.069 17.4333 281.869 15.9C282.669 14.3 283.702 12.6333 284.969 10.9C285.369 10.3667 285.735 9.8 286.069 9.2C286.469 8.53333 286.802 7.96667 287.069 7.5C287.135 7.43333 287.235 7.3 287.369 7.1C286.969 7.23333 286.469 7.43333 285.869 7.7C285.335 7.96667 284.702 8.36667 283.969 8.9C282.769 9.63333 281.502 10.6 280.169 11.8C278.835 12.9333 277.469 14.1333 276.069 15.4C275.735 15.6667 275.369 15.9667 274.969 16.3C274.635 16.6333 274.302 16.9667 273.969 17.3C273.369 17.8333 272.669 18.1 271.869 18.1C271.002 18.0333 270.302 17.6667 269.769 17C269.169 16.4 268.902 15.7 268.969 14.9C269.035 14.0333 269.369 13.3333 269.969 12.8C270.302 12.4667 270.669 12.1333 271.069 11.8C271.402 11.4667 271.735 11.1667 272.069 10.9C274.202 8.96667 276.302 7.2 278.369 5.6C280.435 3.93333 282.469 2.66667 284.469 1.8C286.469 0.933331 288.402 0.766665 290.269 1.3C291.402 1.56667 292.202 2.03333 292.669 2.7C293.202 3.3 293.502 3.83333 293.569 4.3C294.169 5.76667 294.035 7.33333 293.169 9C292.302 10.6 291.202 12.3667 289.869 14.3C289.735 14.4333 289.569 14.6667 289.369 15C289.235 15.2667 289.069 15.5333 288.869 15.8C289.869 15.4 291.169 14.9 292.769 14.3C294.369 13.7 296.302 12.9667 298.569 12.1C299.435 11.8333 300.235 11.9 300.969 12.3C301.702 12.6333 302.202 13.2 302.469 14C302.802 14.7333 302.769 15.5 302.369 16.3C302.035 17.0333 301.502 17.5667 300.769 17.9C298.635 18.6333 296.702 19.3 294.969 19.9C293.235 20.5 291.769 21.0333 290.569 21.5C289.902 21.7667 289.302 22 288.769 22.2C288.302 22.3333 287.869 22.4667 287.469 22.6C287.002 22.7333 286.602 22.8667 286.269 23C285.935 23.0667 285.602 23.1 285.269 23.1ZM322.308 26.1C321.508 26.1 320.841 25.8667 320.308 25.4C319.241 24.5333 318.941 23.4333 319.408 22.1C319.408 22.0333 319.641 21.2333 320.108 19.7C320.641 18.1667 321.241 16.4333 321.908 14.5C322.241 13.3667 322.541 12.4 322.808 11.6C323.074 10.7333 323.308 9.96667 323.508 9.3C321.708 9.96667 319.508 10.8 316.908 11.8C314.308 12.7333 311.574 13.7333 308.708 14.8C305.908 15.8667 303.174 16.9 300.508 17.9C299.774 18.1667 299.041 18.1333 298.308 17.8C297.508 17.4 296.941 16.8 296.608 16C296.341 15.2667 296.408 14.5333 296.808 13.8C297.141 13 297.708 12.4333 298.508 12.1C301.508 11.0333 304.608 9.93333 307.808 8.8C311.008 7.6 313.974 6.5 316.708 5.5C319.441 4.43333 321.674 3.56667 323.408 2.9C325.141 2.23333 326.008 1.9 326.008 1.9C326.341 1.83333 326.674 1.8 327.008 1.8C327.341 1.73333 327.641 1.76667 327.908 1.9C328.841 2.03333 329.508 2.56666 329.908 3.5C330.241 4.03333 330.374 4.73333 330.308 5.6C330.308 6.4 330.141 7.56666 329.808 9.1C329.608 9.96667 329.341 10.9333 329.008 12C328.741 13 328.374 14.1667 327.908 15.5C327.841 15.7667 327.774 16 327.708 16.2C327.641 16.4 327.574 16.6333 327.508 16.9C330.174 15.4333 333.441 13.9 337.308 12.3C338.041 11.9667 338.774 11.9667 339.508 12.3C340.308 12.5667 340.841 13.0667 341.108 13.8C341.508 14.5333 341.541 15.3 341.208 16.1C340.874 16.9 340.341 17.4667 339.608 17.8C336.608 19.1333 333.908 20.4 331.508 21.6C329.174 22.8 327.308 23.7667 325.908 24.5C324.508 25.2333 323.808 25.6 323.808 25.6C323.408 25.9333 322.908 26.1 322.308 26.1ZM361.175 26.1C360.375 26.1 359.708 25.8667 359.175 25.4C358.108 24.5333 357.808 23.4333 358.275 22.1C358.275 22.0333 358.508 21.2333 358.975 19.7C359.508 18.1667 360.108 16.4333 360.775 14.5C361.108 13.3667 361.408 12.4 361.675 11.6C361.942 10.7333 362.175 9.96667 362.375 9.3C360.575 9.96667 358.375 10.8 355.775 11.8C353.175 12.7333 350.442 13.7333 347.575 14.8C344.775 15.8667 342.042 16.9 339.375 17.9C338.642 18.1667 337.908 18.1333 337.175 17.8C336.375 17.4 335.808 16.8 335.475 16C335.208 15.2667 335.275 14.5333 335.675 13.8C336.008 13 336.575 12.4333 337.375 12.1C340.375 11.0333 343.475 9.93333 346.675 8.8C349.875 7.6 352.842 6.5 355.575 5.5C358.308 4.43333 360.542 3.56667 362.275 2.9C364.008 2.23333 364.875 1.9 364.875 1.9C365.208 1.83333 365.542 1.8 365.875 1.8C366.208 1.73333 366.508 1.76667 366.775 1.9C367.708 2.03333 368.375 2.56666 368.775 3.5C369.108 4.03333 369.242 4.73333 369.175 5.6C369.175 6.4 369.008 7.56666 368.675 9.1C368.475 9.96667 368.208 10.9333 367.875 12C367.608 13 367.242 14.1667 366.775 15.5C366.708 15.7667 366.642 16 366.575 16.2C366.508 16.4 366.442 16.6333 366.375 16.9C369.042 15.4333 372.308 13.9 376.175 12.3C376.908 11.9667 377.642 11.9667 378.375 12.3C379.175 12.5667 379.708 13.0667 379.975 13.8C380.375 14.5333 380.408 15.3 380.075 16.1C379.742 16.9 379.208 17.4667 378.475 17.8C375.475 19.1333 372.775 20.4 370.375 21.6C368.042 22.8 366.175 23.7667 364.775 24.5C363.375 25.2333 362.675 25.6 362.675 25.6C362.275 25.9333 361.775 26.1 361.175 26.1ZM412.342 25.1C411.876 25.1 411.442 25.0333 411.042 24.9C409.776 24.6333 408.876 23.8667 408.342 22.6C407.942 21.4667 408.042 20.2 408.642 18.8C409.309 17.4 410.176 15.8333 411.242 14.1C411.642 13.5 412.009 12.9 412.342 12.3C412.742 11.6333 413.076 11.0333 413.342 10.5C413.476 10.3 413.576 10.1333 413.642 10C413.709 9.8 413.776 9.63333 413.842 9.5C411.842 9.16667 409.509 9.1 406.842 9.3C404.242 9.43333 401.309 9.93333 398.042 10.8C395.176 11.5333 392.076 12.5 388.742 13.7C385.476 14.8333 382.009 16.2 378.342 17.8C377.609 18.0667 376.876 18.0667 376.142 17.8C375.409 17.5333 374.876 17.0333 374.542 16.3C374.142 15.5667 374.109 14.8 374.442 14C374.776 13.1333 375.309 12.5667 376.042 12.3C379.776 10.6333 383.342 9.2 386.742 8C390.209 6.73333 393.476 5.73333 396.542 5C404.742 2.93333 411.442 2.6 416.642 4C418.176 4.4 419.242 5.33333 419.842 6.8C420.442 8.26667 420.309 9.9 419.442 11.7C418.576 13.5 417.542 15.3667 416.342 17.3C416.276 17.4333 416.176 17.6 416.042 17.8C415.909 18 415.776 18.2333 415.642 18.5C417.176 18.1667 419.442 17.5 422.442 16.5C425.442 15.5 429.576 14.0333 434.842 12.1C435.576 11.8333 436.309 11.9 437.042 12.3C437.842 12.6333 438.376 13.2 438.642 14C438.976 14.7333 438.976 15.5 438.642 16.3C438.309 17.0333 437.709 17.5667 436.842 17.9C433.776 18.9667 430.976 19.9333 428.442 20.8C425.909 21.6667 423.642 22.4 421.642 23C418.976 23.8 416.942 24.3667 415.542 24.7C414.142 24.9667 413.076 25.1 412.342 25.1Z" fill="#3F5A3F"/>
</svg>
